<svg id="Layer_1" data-name="Layer 1" xmlns="http://www.w3.org/2000/svg" viewBox="0 0 321 321"><defs><style>.cls-1{fill:#fff;}.cls-2{fill:none;stroke:#fff;stroke-miterlimit:10;stroke-width:6px;}</style></defs><title>alien</title><path class="cls-1" d="M161.4,53.3c21-.4,39,7.8,53.1,24.6,6,7.3,9.9,15.7,12.6,24.7a166.1,166.1,0,0,1,7.7,54.7A108.9,108.9,0,0,1,216,214.6c-7.7,11.4-15.6,22.7-23.9,33.8a54.7,54.7,0,0,1-21.4,17c-7.4,3.4-14.6,3-21.7-.6a53.3,53.3,0,0,1-18.5-14.4C118,234.8,106.2,218.6,97,200.6S85,161,86.6,139.9a157.6,157.6,0,0,1,8.3-40.6c7-19.8,19.9-34,39.5-41.7C142.8,54.3,151.5,53.2,161.4,53.3Z"/><path d="M150.9,217.3a1.5,1.5,0,0,1-1.5,1.8c-3.4-.2-6.7-.1-9.9-.8-19.1-4-33-14.5-40-33.2a49.9,49.9,0,0,1-2.8-17.6c.1-2.9.5-3.2,3.4-2.9,18.2,1.8,31.8,10.4,40.6,26.5a117.7,117.7,0,0,1,10.2,26.2Z"/><path d="M170.2,218.8a1,1,0,0,1-.9-1.2c4.2-14.7,9.3-28.8,20.4-39.8,7.7-7.7,17.3-11.2,27.8-12.8a13.5,13.5,0,0,1,2.9-.4c2.7-.3,3.1.1,3.1,2.7.2,16.7-6.1,30.4-19.3,40.6A49.8,49.8,0,0,1,172.9,219l-2.7-.2Z"/><circle class="cls-2" cx="160.5" cy="160.5" r="157.5"/></svg>