<svg width="116" height="116" viewBox="0 0 116 116" fill="none" xmlns="http://www.w3.org/2000/svg">
<path d="M111.07 25.81C107.924 20.213 104.509 19.1835 97.556 18.792C90.6105 18.3208 73.1452 18.125 58.0145 18.125C42.8547 18.125 25.3822 18.3208 18.444 18.7848C11.5057 19.1835 8.08375 20.2057 4.90825 25.81C1.6675 31.3997 0 41.0278 0 57.9783C0 57.9928 0 58 0 58C0 58.0145 0 58.0218 0 58.0218V58.0363C0 74.9143 1.6675 84.6148 4.90825 90.1465C8.08375 95.7435 11.4985 96.7585 18.4368 97.2298C25.3822 97.6357 42.8547 97.875 58.0145 97.875C73.1452 97.875 90.6105 97.6357 97.5632 97.237C104.516 96.7657 107.931 95.7508 111.077 90.1538C114.347 84.622 116 74.9215 116 58.0435C116 58.0435 116 58.0218 116 58.0073C116 58.0073 116 57.9928 116 57.9855C116 41.0278 114.347 31.3997 111.07 25.81ZM43.5 79.75V36.25L79.75 58L43.5 79.75Z" fill="white"/>
</svg>
